<?xml version="1.0" encoding="UTF-8" standalone="no"?>
<svg
   xmlns:dc="http://purl.org/dc/elements/1.1/"
   xmlns:cc="http://creativecommons.org/ns#"
   xmlns:rdf="http://www.w3.org/1999/02/22-rdf-syntax-ns#"
   xmlns:svg="http://www.w3.org/2000/svg"
   xmlns="http://www.w3.org/2000/svg"
   xmlns:sodipodi="http://sodipodi.sourceforge.net/DTD/sodipodi-0.dtd"
   xmlns:inkscape="http://www.inkscape.org/namespaces/inkscape"
   width="123.35938"
   height="155.61328"
   viewBox="24 20 123.35938 155.61328"
   version="1.1"
   id="svg14"
   sodipodi:docname="finish-line-bg.svg"
   inkscape:version="0.92.1 r15371">
  <metadata
     id="metadata20">
    <rdf:RDF>
      <cc:Work
         rdf:about="">
        <dc:format>image/svg+xml</dc:format>
        <dc:type
           rdf:resource="http://purl.org/dc/dcmitype/StillImage" />
        <dc:title></dc:title>
      </cc:Work>
    </rdf:RDF>
  </metadata>
  <defs
     id="defs18" />
  <sodipodi:namedview
     pagecolor="#ffffff"
     bordercolor="#666666"
     borderopacity="1"
     objecttolerance="10"
     gridtolerance="10"
     guidetolerance="10"
     inkscape:pageopacity="0"
     inkscape:pageshadow="2"
     inkscape:window-width="1680"
     inkscape:window-height="987"
     id="namedview16"
     showgrid="false"
     inkscape:measure-start="137.729,53.939"
     inkscape:measure-end="139.971,56.147"
     inkscape:object-paths="true"
     inkscape:snap-nodes="false"
     fit-margin-top="0"
     fit-margin-left="0"
     fit-margin-right="0"
     fit-margin-bottom="0"
     inkscape:zoom="2.8284271"
     inkscape:cx="25.441609"
     inkscape:cy="78.279829"
     inkscape:window-x="-8"
     inkscape:window-y="-8"
     inkscape:window-maximized="1"
     inkscape:current-layer="layer1" />
  <g
     inkscape:groupmode="layer"
     id="layer1"
     inkscape:label="logo"
     style="opacity:0.5">
    <path
       style="fill:#f02746;fill-opacity:1;fill-rule:evenodd;stroke:none;stroke-width:1px;stroke-linecap:butt;stroke-linejoin:miter;stroke-opacity:1"
       d="m 50.527543,77.847605 -6.89429,-11.84404 -0.35355,-9.72272 4.59619,-7.24784 3.53554,-3.18198 1.59099,-12.197593 5.48008,-6.187184 7.42462,-2.12132 4.77297,2.65165 6.54074,-4.772971 9.01561,-1.944543 7.24784,1.59099 8.131727,5.833631 2.2981,2.828427 7.42462,2.298097 5.65685,6.894296 -0.7071,9.54594 3.53553,4.06586 2.2981,7.77818 -3.35876,7.77817 -3.0052,2.65165 -33.764347,13.25825 z"
       id="path4535"
       inkscape:connector-curvature="0" />
    <path
       style="fill:#0b7e38;fill-opacity:1;fill-rule:evenodd;stroke:none;stroke-width:1px;stroke-linecap:butt;stroke-linejoin:miter;stroke-opacity:1"
       d="m 79.751953,82.796875 4.5625,-0.0625 0.375,26.625005 -5,0.3125 z"
       id="path4533"
       inkscape:connector-curvature="0" />
    <path
       style="fill:#7cbd42;fill-opacity:1;fill-rule:evenodd;stroke:none;stroke-width:1px;stroke-linecap:butt;stroke-linejoin:miter;stroke-opacity:1"
       d="m 84.380283,82.443805 v 14.84924 l 6.62913,6.187185 31.908187,-0.0884 8.66206,-5.745245 8.13173,-6.89429 2.65165,-3.35876 -7.42462,-7.15945 -15.2028,-6.98268 -13.87697,-1.94455 -10.606597,3.27037 z"
       id="path4531"
       inkscape:connector-curvature="0" />
    <path
       style="fill:#7cbd42;fill-opacity:1;fill-rule:evenodd;stroke:none;stroke-width:1px;stroke-linecap:butt;stroke-linejoin:miter;stroke-opacity:1"
       d="m 54.593413,73.163025 -12.55115,3.97747 -12.993084,11.84404 3.977476,8.22012 12.020818,7.778175 26.69328,-0.7071 7.95495,-7.159465 0.26516,-15.02602 -9.98788,-6.54074 z"
       id="path4529"
       inkscape:connector-curvature="0" />
    <path
       style="fill:#ffffff;fill-rule:evenodd;stroke:none;stroke-width:1px;stroke-linecap:butt;stroke-linejoin:miter;stroke-opacity:1"
       d="m 24.689453,108.67188 12,-1 20.25,-5.5 8.125,-0.375 9.5,3.125 39.749997,38.49999 3,6.5 -2.625,4 -4.5,0.625 -1.625,3.375 -1.75,3 -5.25,-0.25 -0.875,3.75 -4.249997,2.75 -3.125,-1.125 -1.125,5.5 -3.375,0.75 -8,-4.875 -35.875,-16.625 -7.75,-7.5 -10.75,-2.25 z"
       id="path4527"
       inkscape:connector-curvature="0" />
    <path
       style="fill:#bd8129;fill-opacity:1;fill-rule:evenodd;stroke:#000000;stroke-width:1px;stroke-linecap:butt;stroke-linejoin:miter;stroke-opacity:1"
       d="m 79.439453,125.67188 -0.625,12.24999 -3.75,2.125 -4.5,-1.5 -1.75,-5.125 0.5,-10.74999 3.25,-4.5 14.375,-12.25 10.375,-4.75 10.249997,-0.125 7.5,0.375 9,4 5.25,2.625 8.75,1.125 7.75,0.5 v 31.24999 l -17,0.625 -8.125,1.125 -8.5,-1.375 -21.874997,-21.74999 -2.875,-0.25 z"
       id="path4525"
       inkscape:connector-curvature="0" />
    <path
       style="fill:#bd8129;fill-opacity:1;fill-rule:evenodd;stroke:#000000;stroke-width:1px;stroke-linecap:butt;stroke-linejoin:miter;stroke-opacity:1"
       d="m 52.689453,142.67187 4.625,-1.5 2.3125,4.125 4,-0.125 4.375,0.4375 1.25,4.0625 4,-0.4375 3.125,2.625 -0.125,5.625 3.8125,2.125 1.75,1.5 -4.25,8.375 -7.375,4.5625 -2.6875,-1.8125 -0.5625,-4 -6.875,1.6875 -2.5,-5.3125 -4.3125,-0.8125 -3.1875,-2.125 0.9375,-4.625 -5.25,-0.125 -1.625,-2.75 z"
       id="path4523"
       inkscape:connector-curvature="0" />
    <path
       inkscape:connector-curvature="0"
       style="fill:#211c1c;fill-opacity:1;fill-rule:evenodd"
       id="path4"
       d="m 145.44145,139.20587 c -2.053,0.05 -20.166,0.5 -23.895,1.41 -2.645,0.65 -7.457,-0.5 -9.09,-0.997 -0.832,-0.26 -1.722,0.203 -1.98,1.028 -0.26,0.823 0.206,1.698 1.042,1.954 0.217,0.065 4.383,1.326 8.116,1.326 0.944,0 1.858,-0.08 2.676,-0.282 2.868,-0.7 17.724,-1.188 23.208,-1.316 0.873,-0.022 1.567,-0.737 1.545,-1.6 -0.02,-0.863 -0.755,-1.536 -1.623,-1.524" />
    <path
       inkscape:connector-curvature="0"
       style="fill:#211c1c;fill-opacity:1;fill-rule:evenodd"
       id="path6"
       d="m 142.62645,87.345875 -58.189997,2.565 m 9.766,-0.867 8.093997,-17.132 m 0,17.21 13.58,-16.824 m 0,16.226 9.402,-13.422 m 1.501,12.943 5.303,-9.485 m -5.303,9.485 6.488,8.593 m -17.391,-8.114 8.52,13.704005 m -22.1,-13.106005 6.186,10.894005 m -14.279997,-10.972005 3.965,12.400005 m -69.556,-11.532005 h 51.094 m -11.353,0 -6.18,-16.28 m -4.465,16.28 -3.55,-16.493 m -6.622,16.493 -8.186,-10.454 m 8.186,10.454 -8.186,11.743005 m 18.358,-11.743005 -9.03,13.615005 m 19.675,-13.615005 -6.954,11.743005 m 35.339,-28.430005 1.064,0.245" />
    <path
       style="fill:#211c1c;fill-opacity:1;fill-rule:evenodd"
       d="m 86.447263,20 c -8.81,0 -13.61186,4.148094 -15.63086,6.496094 -1.23,-0.94 -2.66372,-1.589375 -4.26172,-1.859375 -4.254,-0.728 -8.77389,1.241765 -12.087886,5.259765 -4.984,6.042 -4.73325,12.845219 -4.40625,15.449219 -4.456,2.81 -8.59961,7.428302 -8.59961,14.904292 0,4.89002 1.548422,9.47158 4.607422,13.64258 -11.103,4.53 -18.367859,14.5761 -18.755859,15.1211 -0.052,0.074 -0.087,0.15437 -0.125,0.23437 -0.013,0.027 -0.02902,0.0492 -0.04102,0.0762 -0.07,0.17 -0.101422,0.3483 -0.107422,0.5293 0,0.02 -0.0098,0.0347 -0.0098,0.0547 0,0.02 0.0098,0.0405 0.0098,0.0605 0.01,0.17799 0.03352,0.35443 0.103516,0.52343 l 0.0078,0.0195 c 0,0.002 0.0039,0.006 0.0059,0.008 0.232,0.564 3.897687,8.99962 14.179687,14.015625 -4.229916,1.20933 -8.915072,2.32526 -14.410156,2.91211 h -2.925781 v 0.25977 3.14453 28.33984 3.14453 0.16602 h 2.914062 c 4.852812,0.47 10.974225,2.23306 15.279297,7.69336 0.698,0.885 1.496953,1.73444 2.376953,2.52344 0.305,0.274 0.68636,0.41015 1.06836,0.41015 0.43,0 0.857875,-0.17372 1.171875,-0.51172 0.59,-0.636 0.541484,-1.62408 -0.103516,-2.20508 -0.748,-0.67 -1.424765,-1.38981 -2.009766,-2.13281 h -0.002 c -5.034576,-6.38495 -12.049719,-8.43238 -17.544921,-8.94726 v -28.75 c 7.7494,-0.81489 13.875642,-2.65742 19.43164,-4.33985 5.364,-1.624 10.00041,-3.02734 14.816402,-3.02734 9.99,0 15.00013,5.03528 15.07813,5.11328 l 3.32812,3.27734 c 0.31,0.305 0.71413,0.45899 1.11915,0.45899 0.40699,0 0.81304,-0.15399 1.12304,-0.45899 0.62,-0.61 0.62,-1.60003 0,-2.20703 L 81.29099,108.6564 V 84.716935 c 0,-0.422 0.35121,-0.76953 0.78321,-0.76953 0.43,0 0.77929,0.34653 0.77929,0.76953 v 22.777355 c 0,0.863 0.70899,1.5625 1.58399,1.5625 0.875,0 1.58593,-0.7005 1.58593,-1.5625 v -6.41016 c 1.07,1.124 2.4673,2.31634 4.2793,3.40234 0.75,0.445 1.72469,0.21457 2.17969,-0.52343 0.454,-0.738 0.21575,-1.69649 -0.53125,-2.14649 -3.92,-2.348005 -5.53574,-5.283515 -5.92774,-6.103515 v -4.31446 l 7.17383,-0.3164 3.46094,10.826175 c 0.214,0.667 0.83972,1.09179 1.51172,1.09179 0.157,0 0.31956,-0.0233 0.47656,-0.0723 0.834,-0.258 1.29716,-1.13399 1.03516,-1.95898 l -3.20703,-10.031265 4.91992,-0.21679 5.70703,10.050785 c 0.29,0.512 0.82977,0.79883 1.38477,0.79883 0.262,0 0.52648,-0.0623 0.77148,-0.19727 0.764,-0.42 1.03733,-1.373955 0.61133,-2.126955 l -4.93164,-8.67969 10.08007,-0.44531 7.10352,11.427735 c -0.4,0.18 -0.79698,0.3613 -1.20898,0.5293 -0.81,0.332 -1.19343,1.24597 -0.85743,2.04297 0.253,0.6 0.84385,0.96094 1.46485,0.96094 0.202,0 0.40747,-0.0362 0.60547,-0.11719 1.046,-0.43 2.04353,-0.894 3.01953,-1.375 0.027,-0.013 0.057,-0.0202 0.084,-0.0352 0.006,-0.004 0.01,-0.0106 0.0156,-0.0156 11.714,-5.802005 18.37578,-14.876975 18.67578,-15.292975 0.056,-0.076 0.0831,-0.16409 0.12305,-0.2461 0.027,-0.054 0.0601,-0.0982 0.0801,-0.1582 l -0.004,0.002 c 0.062,-0.18001 0.0929,-0.36574 0.0859,-0.55274 0,-0.006 0.005,-0.01 0.004,-0.0156 0,-0.03 -0.0195,-0.054 -0.0215,-0.084 -0.016,-0.154 -0.0503,-0.30322 -0.11328,-0.44922 -0.026,-0.06 -0.0627,-0.11678 -0.0977,-0.17578 -0.034,-0.06 -0.0556,-0.12469 -0.0996,-0.17969 -0.433,-0.55 -8.97292,-11.14775 -25.16992,-15.09375 2.986,-2.616 4.80664,-6.35142 4.80664,-10.23242 0,-5.973996 -3.85342,-9.952014 -5.73242,-11.541014 0.568,-1.36 0.8875,-2.801109 0.9375,-4.287109 0.143,-4.258 -1.93136,-8.519361 -5.69336,-11.693359 -2.716,-2.290002 -6.08206,-3.398672 -9.28906,-3.888672 -0.017,-0.035 -0.0142,-0.07337 -0.0332,-0.109375 -0.207,-0.39 -5.19586,-9.541016 -17.25586,-9.541016 z m 0.002,3.121094 -0.002,0.002 c 7.25,0 11.43997,3.889172 13.29297,6.201172 -3.786,-0.065 -6.71294,0.523172 -6.96094,0.576172 -0.04,0.007 -0.0675,0.03297 -0.10546,0.04297 -0.056,0.016 -0.11202,0.02292 -0.16602,0.04492 -0.033,0.012 -0.0568,0.04064 -0.0898,0.05664 -0.014,0.006 -0.028,0.01739 -0.041,0.02539 -0.095,0.05 -0.18172,0.09901 -0.26172,0.166015 -0.032,0.025 -0.0715,0.03645 -0.10351,0.06445 -0.87,0.825 -1.72055,1.529063 -2.56055,2.164063 -1.327,-3.348 -3.79444,-5.244141 -7.02344,-5.244141 -4.353,0 -6.88694,2.174531 -8.21094,3.894531 -0.33,-0.844 -0.73284,-1.627078 -1.21484,-2.330078 1.402,-1.75 5.42927,-5.664062 13.44727,-5.664062 z m -21.61133,4.490234 c 0.39573,0.0022 0.78873,0.03519 1.17773,0.101563 1.49,0.253 2.762,0.964781 3.75,2.050781 0.013,0.018 0.0299,0.03087 0.0449,0.04687 0.378,0.423 0.71986,0.89764 1.00586,1.43164 -0.58,0.344 -1.25164,0.784579 -1.80664,1.267579 -0.934,0.82 -1.43554,1.943687 -1.68554,2.679687 -1.302,0.752 -4.39349,2.760358 -7.14649,6.19336 -1.23,0.242 -4.013217,0.900406 -7.074218,2.316406 -0.119979,-2.675555 0.262915,-7.519526 3.822266,-11.833985 l 0.002,-0.002 c 2.258979,-2.735638 5.140779,-4.267084 7.910159,-4.251953 z m 17.58789,2.732422 c 2.46,0 3.68473,1.906469 4.30273,3.855469 -2.156,1.123 -4.19933,1.583312 -6.11133,1.320312 -1.78,-0.248 -3.21162,-1.08875 -4.26562,-1.96875 0.714,-1.134 2.50622,-3.207031 6.07422,-3.207031 z m 18.216787,2.146484 c 3.43701,0.168 7.41732,0.971875 10.32032,3.421875 3.026,2.552 4.69984,5.911797 4.58984,9.216797 -0.072,2.157 -0.894,4.148813 -2.375,5.882813 -1.78,-10.708 -9.14817,-15.196297 -10.70117,-16.029297 -0.308,-0.706 -0.73144,-1.358313 -1.27344,-1.945313 -0.18,-0.193 -0.36654,-0.375875 -0.56055,-0.546875 z m -6.124997,0.650391 c 1.297,0.22 3.18485,0.744047 4.33985,1.998047 0.82,0.892 1.159247,2.039812 1.03125,3.507812 -0.304,3.49 -4.41458,11.432985 -11.51758,14.833985 -5.474,2.62 -11.4255,1.969937 -17.6875,-1.914063 -0.75,-2.66 -1.10741,-5.534095 -1.06641,-8.621093 l 0.002,0.002 c 2.447,2.015 6.34903,4.592234 10.45703,4.740234 2.67,0.086 5.0282,-0.816031 7.0332,-2.707031 5.38,-5.074 6.95421,-9.485844 7.4082,-11.839844 z m -22.15039,0.830078 c 1.262,1.564 3.84668,4.076766 7.76368,4.634766 0.528,0.076 1.05679,0.113281 1.59179,0.113281 2.763,0 5.63789,-1.027531 8.58789,-3.019531 -0.922,1.906 -2.53957,4.33139 -5.39257,7.02539 -1.382,1.3 -2.93571,1.899844 -4.72071,1.839844 -4.395,-0.154 -8.87445,-4.193422 -10.31445,-5.607422 0.092,-0.8 0.19984,-1.603781 0.33984,-2.425781 0.055,-0.255 0.34763,-1.209453 0.89063,-1.689453 l 0.002,0.002 c 0.348,-0.303 0.81195,-0.609047 1.25195,-0.873047 z m 30.648437,5.15625 c 2.835,2.28 7.39258,7.388358 7.39258,16.69336 0,6.750002 -2.14031,11.638812 -6.19531,14.132812 -0.01,0.006 -0.0125,0.0165 -0.0215,0.0215 -0.784,0.1 -1.57051,0.25913 -2.35351,0.45313 -0.04,0.013 -0.0802,0.0173 -0.11719,0.0312 -1.37,0.346 -2.726727,0.816 -4.052727,1.375 l -0.57227,-0.13086 c -0.03,-0.008 -0.0589,9e-5 -0.0859,-0.004 -0.035,-0.006 -0.0627,-0.0243 -0.0957,-0.0293 -0.143,-0.014 -14.37669,-1.7245 -22.17969,-11.9375 -0.885,-1.162 -1.6555,-2.3906 -2.3125,-3.683597 3.355,1.526997 6.42086,2.117187 9.13086,2.117187 v -0.002 c 3.285,0 6.05408,-0.84696 8.20508,-1.876956 7.9,-3.783 12.719807,-12.300156 13.257807,-17.160156 z m -36.378897,0.326172 c -0.474,4.875 -0.0731,9.324516 1.13085,13.353516 0.014,0.096 0.049,0.18439 0.082,0.27539 0.964,3.113 2.40309,5.979734 4.37109,8.552734 6.223,8.128 15.75647,11.31995 20.85547,12.50195 -4.964,2.876 -8.76245,6.23775 -9.56445,6.96875 -0.446,-0.174 -0.9295,-0.27929 -1.4375,-0.27929 h -0.002 c -0.49,0 -0.95762,0.0998 -1.39062,0.25976 -1.233,-1.483 -6.33417,-6.83889 -16.57617,-8.71289 -5.17,-8.162 -6.88213,-15.585451 -5.07813,-22.064451 1.48,-5.313 5.07238,-8.892469 7.60938,-10.855469 z m -8.97657,5.794922 c -0.662994,1.274 -1.247778,2.6605 -1.675778,4.1875 -1.9,6.763 -0.504052,14.292158 4.126958,22.410158 -1.077,-0.086 -2.19229,-0.14063 -3.363286,-0.14063 -2.64,0 -5.158203,0.40489 -7.533203,1.08789 -3.03,-3.83 -4.585938,-8.04196 -4.585938,-12.54297 v -0.002 c 0,-5.553996 2.734859,-9.896201 8.130859,-12.908201 1.716,-0.96 3.445394,-1.631797 4.900388,-2.091797 z m 58.519487,7.048828 c 1.575,1.457 4.16407,4.500674 4.16407,8.76367 0,3.83 -2.30863,7.49653 -5.89063,9.39453 -1.713,-0.267 -3.50133,-0.45387 -5.36133,-0.54687 2.436,-2.74 4.48829,-7.11285 4.48828,-14.089846 0,-0.28 -0.0282,-0.53364 -0.0352,-0.80664 1.017,-0.83 1.90576,-1.735844 2.63476,-2.714844 z m -9.86132,20.6543 c 2.322,0 4.52881,0.16903 6.63281,0.45703 l -11.44922,14.18359 -4.968747,0.21875 -0.002,0.004 -0.002,-0.004 h 0.004 l 6.869137,-14.54101 c 0.982,-0.198 1.96102,-0.31836 2.91602,-0.31836 z m 10.1875,1.07422 c 2.255,0.486 4.3505,1.11984 6.3125,1.83984 l -7.79883,11.13281 -9.31446,0.41016 z m -17.199217,0.51367 -6.34375,13.43359 -6.94141,0.30469 v -3.55664 -1.64063 c 1.655,-1.448 7.22416,-6.07701 13.28516,-8.54101 z m -42.560549,0.29297 c 1.519999,0 2.937299,0.0893 4.279299,0.23632 v 0.002 l 5.04297,13.27929 h -7.07813 l -2.904296,-13.5 c 0.22,-0.007 0.440157,-0.0176 0.660157,-0.0176 z m -3.832032,0.33007 2.835938,13.1875 h -7.433594 l -6.689453,-8.54492 c 3.27,-2.135 7.089109,-3.93258 11.287109,-4.64258 z m 11.716801,0.49219 c 8.222,1.788 12.38723,5.9933 13.49023,7.2793 v 1.78711 h -0.002 v 3.6289 h -8.66797 z m 61.181637,1.42969 c 1.472,0.658 2.85304,1.35322 4.12304,2.07422 l -4.11523,7.36328 -6.82813,0.29883 z m 6.81836,3.72851 c 2.848,1.874 5.03114,3.72605 6.49414,5.12305 l -9.59571,0.42383 z m -93.582032,0.81641 v 0.004 l 5.261719,6.71679 H 31.90625 c 1.575,-1.8 4.024578,-4.3307 7.142578,-6.7207 z m 100.083982,7.43555 c -1.313,1.444 -3.19189,3.33722 -5.58789,5.32422 l -3.71094,-4.91407 z m -13.12305,0.57812 5.04883,6.6875 c -1.812,1.332 -3.84994,2.64494 -6.08594,3.835945 l -6.33789,-10.197265 z m -67.447257,1.82813 h 7.02734 l -5.12109,8.652345 c -2.88538,0.093 -5.661191,0.59643 -8.519534,1.32617 z m -27.308597,0.002 h 13.271485 l -5.589844,8.01758 c -3.968,-2.777 -6.396641,-5.96258 -7.681641,-8.01758 z m 38.007817,0 h 8.85937 v 4.25195 c -0.393,0.84 -2.02969,3.84805 -6.17969,6.248055 -0.004,0.003 -0.007,0.007 -0.0117,0.008 v -0.002 c -2.11,-0.822 -4.7307,-1.50072 -7.8457,-1.76172 z m -20.892582,0.002 h 6.410156 l -7.429688,11.199225 c -0.017,0.025 -0.0172,0.056 -0.0332,0.084 -0.438,0.13 -0.880125,0.26243 -1.328125,0.39844 l -0.427734,-0.19141 c -1.433,-0.532 -2.734453,-1.14855 -3.939453,-1.81055 z m 29.751952,9.609385 v 4.49023 c -0.568,-0.49 -1.51805,-1.22576 -2.87305,-2.00976 1.14942,-0.81971 2.09934,-1.66678 2.87305,-2.48047 z m 11.40234,16.33203 c -0.40525,0 -0.81014,0.15203 -1.11914,0.45703 -0.62,0.61 -0.62,1.59803 0,2.20703 8.52,8.39599 19.749387,19.46071 20.775387,20.47071 l 0.45508,0.43945 c 1.63,1.56999 5.96152,5.74481 5.97852,8.88281 0.004,0.776 -0.26942,1.40633 -0.85742,1.98633 -0.853,0.84 -1.7963,1.21647 -2.7793,1.23047 -2.19,-0.023 -4.23969,-1.86706 -4.67969,-2.28906 -0.914,-0.94 -1.84069,-1.75105 -2.55469,-2.37305 -0.316,-0.27501 -0.57242,-0.49635 -0.73242,-0.65235 l -6.849607,-6.75 -2.24218,2.20703 6.851557,6.75 c 0.192,0.19 0.49604,0.45716 0.87304,0.78515 1.475,1.286 4.93291,4.29732 5.00391,6.57032 0.017,0.563 -0.19883,1.04467 -0.67383,1.51367 -0.732,0.72 -1.47929,1.06162 -2.27929,1.01562 -1.633,-0.074 -3.2823,-1.62584 -3.7793,-2.21484 l -0.01,-0.008 c -0.44,-0.572 -0.933147,-1.15014 -1.535147,-1.74414 l -8.24414,-8.12696 -2.24024,2.21094 8.24219,8.125 c 1.343,1.32 2.15697,2.52508 2.41797,3.58008 0.263,1.05601 -0.0385,1.93928 -0.97852,2.86328 -1.56,1.54 -3.89073,0.42852 -4.67773,-0.0215 -0.383,-0.63999 -0.83758,-1.24893 -1.39258,-1.79492 -1.915,-1.88801 -6.82695,-7.33757 -6.87695,-7.39258 -0.58,-0.64699 -1.58138,-0.70391 -2.23438,-0.1289 -0.655,0.56999 -0.71381,1.55712 -0.13281,2.20312 0.204,0.227 5.02091,5.57339 7.00391,7.52539 0.817,0.805 1.37339,1.81549 1.52539,2.77149 0.164,1.018 -0.12958,1.87976 -0.89258,2.63476 -0.318,0.31 -0.68039,0.42135 -1.15039,0.44336 -1.062,-0.008 -3.56605,-0.74867 -8.37305,-5.63867 -0.607,-0.62 -1.61023,-0.6322 -2.24023,-0.0332 -0.63,0.6 -0.64321,1.58898 -0.0332,2.20898 4.337,4.41 7.81205,6.56494 10.62305,6.58594 h 0.043 c 1.3,0 2.46314,-0.46937 3.36914,-1.35937 1.21,-1.193 1.84352,-2.68897 1.85352,-4.29297 0.53,0.114 1.08062,0.18554 1.64062,0.18554 1.43,0 2.91755,-0.43945 4.185547,-1.68945 1.25,-1.23 1.91542,-2.63495 1.98242,-4.12695 0.548,0.18 1.11842,0.32156 1.73242,0.35156 0.095,0.005 0.19116,0.008 0.28516,0.008 1.6,0 3.11729,-0.66459 4.40429,-1.93359 1.09,-1.074 1.64261,-2.39631 1.59961,-3.82031 -0.014,-0.39 -0.0769,-0.77711 -0.16992,-1.16211 0.413,0.08 0.84035,0.13072 1.27735,0.13672 h 0.0976 c 1.857,0 3.53247,-0.72244 4.98047,-2.14844 1.19,-1.173 1.7922,-2.58899 1.7832,-4.20899 -0.025,-4.442 -4.86368,-9.10856 -6.92968,-11.10156 l 0.002,0.006 -0.42969,-0.41797 c -1.03,-1.012 -12.258297,-12.07475 -20.779297,-20.46875 -0.31,-0.305 -0.71389,-0.45703 -1.11914,-0.45703 z"
       id="path8"
       inkscape:connector-curvature="0" />
    <path
       style="fill:#211c1c;fill-opacity:1;fill-rule:evenodd"
       d="m 108.78515,98.990235 c -9.893997,0 -17.973967,1.960815 -22.167967,5.382815 -0.52,0.423 -1.41984,1.0685 -2.46484,1.8125 -6.058,4.332 -17.32472,12.38277 -17.38672,20.75977 -0.073,0.884 -0.58989,8.51792 2.91211,12.29492 1.328,1.43299 3.03055,2.16015 5.06055,2.16015 1.785,0 3.22901,-0.55824 4.29101,-1.65625 2.28,-2.36 2.07421,-6.54716 1.90821,-9.91015 -0.065,-1.308 -0.15147,-3.09828 0.0195,-3.48828 1.847,-2.34 5.84445,-5.80664 8.56445,-5.80664 0.875,0 1.58594,-0.69855 1.58594,-1.56055 0,-0.863 -0.70994,-1.56055 -1.58594,-1.56055 -4.542,0 -9.53036,5.05976 -11.06836,7.00977 -0.9,1.138 -0.80964,2.99255 -0.68164,5.56055 0.13,2.62 0.30594,6.20956 -1.03906,7.60156 -0.284,0.293 -0.8011,0.68555 -1.99609,0.68555 -1.13301,0 -1.9948,-0.36168 -2.7168,-1.13868 -2.24,-2.41 -2.2698,-8.02046 -2.0918,-9.98046 0.005,-0.046 0.008,-0.0936 0.008,-0.14063 l 0.002,0.002 c 0,-6.81 10.86012,-14.57373 16.07812,-18.30273 1.13,-0.81 2.0241,-1.44755 2.6211,-1.93555 3.583,-2.922 11.11543,-4.66601 20.148427,-4.66601 6.972,0 12.73099,3.16821 16.33399,5.82421 4.06977,3.00684 15.6032,3.32939 19.08984,3.36915 v 31.05468 h 3.15039 v -34.16216 h -2.54512 c -5.75231,-0.0406 -15.13114,-0.79206 -17.79688,-2.76172 -3.99,-2.942 -10.38842,-6.447265 -18.23242,-6.447265 z M 56.671875,139.84765 c -2.674,0 -5.171735,2.4768 -7.177734,4.4668 l -0.398438,0.39454 c -1.093,1.07599 -3.132,3.22022 -4.5,5.49022 -2.4,3.975 -1.448516,6.23947 -0.228516,7.43946 0.866,0.855 1.936797,1.3086 3.091797,1.3086 0.534,0 1.056219,-0.12106 1.574219,-0.28907 -0.57,2.01401 -0.389609,3.93031 1.150391,5.44532 1.16,1.145 2.564171,1.71394 4.076171,1.71093 0.58,0 1.178204,-0.0918 1.783204,-0.25977 -0.23,1.67 0.125687,3.23458 1.429684,4.51759 1.05,1.037 2.2896,1.56149 3.6836,1.5625 1.6,0 3.17676,-0.72456 4.63476,-1.72657 -0.34,1.582 -0.133,3.10273 1,4.38672 0.76,0.862 1.80177,1.31837 3.00977,1.31837 h 0.002 c 4.648,0 10.99966,-6.99907 12.84766,-11.53908 1.3,-3.19399 0.46901,-4.9102 -0.45899,-5.78319 -0.885,-0.83501 -1.99879,-1.27344 -3.21679,-1.27344 v 0.004 c -0.486,0 -0.96832,0.086 -1.44532,0.20703 0.585,-1.203 0.9628,-2.44573 0.9668,-3.67773 0.006,-1.60401 -0.59234,-3.0116 -1.77734,-4.18361 -0.953,-0.94399 -2.14899,-1.44336 -3.45899,-1.44336 -0.84,0 -1.68339,0.20288 -2.52539,0.54688 -0.048,-1.78 -1.03672,-3.06003 -1.88672,-3.83203 -2.524,-2.302 -5.44389,-1.55168 -7.96289,-0.0137 0.01,-0.13599 0.0235,-0.27124 0.0215,-0.40624 -0.014,-1.26401 -0.49849,-2.38071 -1.39649,-3.22071 -0.8,-0.753 -1.78289,-1.15039 -2.837888,-1.15039 z m -0.002,3.125 c 0.17,0 0.382297,0.036 0.654301,0.29102 0.28,0.262 0.40615,0.56914 0.41015,0.99414 0.025,1.923 -2.341264,5.12426 -4.697264,7.44726 l -0.566406,0.56836 c -1.228,1.242 -3.515672,3.55374 -5.013672,3.55274 -0.21,0 -0.501516,-0.0426 -0.853516,-0.39062 l 0.002,-0.002 c -0.807,-0.79499 0.09989,-2.61877 0.71289,-3.63477 1.193,-1.976 3.029625,-3.9059 4.015625,-4.87889 l 0.40625,-0.40039 c 1.337,-1.328 3.574688,-3.54688 4.929688,-3.54688 z m 8.634761,3.37695 c 0.53388,0.0252 0.99458,0.22124 1.39258,0.58399 0.6,0.55 1.83024,1.6808 -0.50976,4.5918 -0.87,0.762 -1.73022,1.58015 -2.57422,2.41015 -1.912,1.887 -4.26738,4.4926 -5.85938,7.1836 -1.327997,1.102 -3.610075,2.47429 -5.330075,0.77929 h -0.002 c -1.845,-1.817 1.60775,-6.8502 5.843748,-11.03319 3.18,-3.1275 5.43744,-4.59114 7.03906,-4.51563 z m 7.95313,4.69922 c 0.474,0 0.84784,0.15849 1.21484,0.52149 0.584,0.58 0.85552,1.2057 0.85352,1.9707 -0.01,3.06 -4.30953,7.25583 -6.14453,9.04883 l -0.44336,0.43164 c -0.225,0.223 -0.46852,0.46942 -0.72852,0.73242 -1.762,1.78 -4.70747,4.75977 -6.85547,4.75977 -0.53616,-0.002 -0.99701,-0.20882 -1.44336,-0.65039 -1.98054,-1.95562 1.66004,-7.29329 6.14454,-11.7168 0.675,-0.665 1.56229,-1.54086 2.52929,-2.38086 0.04,-0.037 0.0929,-0.0595 0.13086,-0.10352 0.005,-0.006 0.0107,-0.0106 0.0137,-0.0176 1.593,-1.366 3.37152,-2.59571 4.72852,-2.59571 z m 5.71484,9.09571 c 0.408,0 0.72539,0.1252 1.02539,0.4082 0.232,0.22 0.23899,1.05333 -0.29101,2.36133 h 0.002 c -1.716,4.21 -7.27215,9.58008 -9.91015,9.58008 -0.333,0 -0.48719,-0.0982 -0.61719,-0.24414 -1.213,-1.37299 0.81473,-5.16104 4.92773,-9.20704 1.844,-1.816 3.66228,-2.89842 4.86328,-2.89842 z"
       id="path10"
       inkscape:connector-curvature="0" />
  </g>
</svg>
