<?xml version="1.0" encoding="UTF-8" standalone="no"?>
<svg
   xmlns:dc="http://purl.org/dc/elements/1.1/"
   xmlns:cc="http://creativecommons.org/ns#"
   xmlns:rdf="http://www.w3.org/1999/02/22-rdf-syntax-ns#"
   xmlns:svg="http://www.w3.org/2000/svg"
   xmlns="http://www.w3.org/2000/svg"
   xmlns:sodipodi="http://sodipodi.sourceforge.net/DTD/sodipodi-0.dtd"
   xmlns:inkscape="http://www.inkscape.org/namespaces/inkscape"
   width="256"
   height="256"
   viewBox="24 20 255.99999 256"
   version="1.1"
   id="svg14"
   sodipodi:docname="florist-icon.svg"
   inkscape:version="0.92.1 r15371">
  <metadata
     id="metadata20">
    <rdf:RDF>
      <cc:Work
         rdf:about="">
        <dc:format>image/svg+xml</dc:format>
        <dc:type
           rdf:resource="http://purl.org/dc/dcmitype/StillImage" />
        <dc:title></dc:title>
      </cc:Work>
    </rdf:RDF>
  </metadata>
  <defs
     id="defs18" />
  <sodipodi:namedview
     pagecolor="#ffffff"
     bordercolor="#666666"
     borderopacity="1"
     objecttolerance="10"
     gridtolerance="10"
     guidetolerance="10"
     inkscape:pageopacity="0"
     inkscape:pageshadow="2"
     inkscape:window-width="1680"
     inkscape:window-height="987"
     id="namedview16"
     showgrid="false"
     inkscape:measure-start="137.729,53.939"
     inkscape:measure-end="139.971,56.147"
     inkscape:object-paths="true"
     inkscape:snap-nodes="false"
     fit-margin-top="0"
     fit-margin-left="0"
     fit-margin-right="0"
     fit-margin-bottom="0"
     inkscape:zoom="2"
     inkscape:cx="125.30592"
     inkscape:cy="95.619589"
     inkscape:window-x="-8"
     inkscape:window-y="-8"
     inkscape:window-maximized="1"
     inkscape:current-layer="svg14" />
  <path
     style="fill:#f02746;fill-opacity:1;fill-rule:evenodd;stroke:none;stroke-width:1.64510369px;stroke-linecap:butt;stroke-linejoin:miter;stroke-opacity:1"
     d="M 94.170885,115.16531 82.829063,95.680635 82.247436,79.685753 l 7.56121,-11.923449 5.81633,-5.234687 2.617343,-20.066305 9.015301,-10.17856 12.21427,-3.489791 7.85203,4.362239 10.76019,-7.852032 14.83162,-3.198975 11.92345,2.617343 13.37753,9.596928 3.78061,4.653056 12.21427,3.780608 9.30611,11.341832 -1.16326,15.704061 5.81632,6.688762 3.78061,12.795912 -5.52551,12.795895 -4.94386,4.36224 -55.54586,21.8112 z"
     id="path4535"
     inkscape:connector-curvature="0" />
  <path
     style="fill:#0b7e38;fill-opacity:1;fill-rule:evenodd;stroke:none;stroke-width:1.64510369px;stroke-linecap:butt;stroke-linejoin:miter;stroke-opacity:1"
     d="m 142.24807,123.30737 7.50578,-0.10282 0.61692,43.8009 -8.22552,0.51409 z"
     id="path4533"
     inkscape:connector-curvature="0" />
  <path
     style="fill:#7cbd42;fill-opacity:1;fill-rule:evenodd;stroke:none;stroke-width:1.64510369px;stroke-linecap:butt;stroke-linejoin:miter;stroke-opacity:1"
     d="m 149.86215,122.72653 v 24.42854 l 10.90561,10.17857 52.49227,-0.14543 14.24999,-9.45153 13.37754,-11.34182 4.36224,-5.52551 -12.21427,-11.77803 -25.01018,-11.48724 -22.82906,-3.19898 -17.44895,5.3801 z"
     id="path4531"
     inkscape:connector-curvature="0" />
  <path
     style="fill:#7cbd42;fill-opacity:1;fill-rule:evenodd;stroke:none;stroke-width:1.64510369px;stroke-linecap:butt;stroke-linejoin:miter;stroke-opacity:1"
     d="m 100.85966,107.45869 -20.647941,6.54335 -21.37497,19.48467 6.54336,13.52295 19.775492,12.79591 43.913209,-1.16325 13.08672,-11.77807 0.43622,-24.71936 -16.4311,-10.76019 z"
     id="path4529"
     inkscape:connector-curvature="0" />
  <path
     style="fill:#ffffff;fill-rule:evenodd;stroke:none;stroke-width:1.64510369px;stroke-linecap:butt;stroke-linejoin:miter;stroke-opacity:1"
     d="m 51.664547,165.87444 19.741245,-1.64511 33.313348,-9.04807 13.36647,-0.61691 15.62848,5.14095 65.39287,63.33648 4.93531,10.69317 -4.3184,6.58041 -7.40296,1.02819 -2.6733,5.55223 -2.87893,4.93531 -8.63679,-0.41128 -1.43947,6.16914 -6.99168,4.52404 -5.14095,-1.85074 -1.85074,9.04807 -5.55223,1.23383 -13.16083,-8.01989 -59.018093,-27.34984 -12.749553,-12.33828 -17.684865,-3.70149 z"
     id="path4527"
     inkscape:connector-curvature="0" />
  <path
     style="fill:#bd8129;fill-opacity:1;fill-rule:evenodd;stroke:#000000;stroke-width:1.64510369px;stroke-linecap:butt;stroke-linejoin:miter;stroke-opacity:1"
     d="m 141.73397,193.8412 -1.02819,20.15251 -6.16913,3.49584 -7.40297,-2.46765 -2.87893,-8.43116 0.82255,-17.68485 5.34659,-7.40297 23.64836,-20.15252 17.06795,-7.81424 16.86231,-0.20564 12.33828,0.61692 14.80593,6.58041 8.6368,4.3184 14.39465,1.85074 12.74956,0.82255 v 51.40948 l -27.96677,1.02819 -13.36646,1.85074 -13.98338,-2.26202 -35.98664,-35.78099 -4.72968,-0.41128 z"
     id="path4525"
     inkscape:connector-curvature="0" />
  <path
     style="fill:#bd8129;fill-opacity:1;fill-rule:evenodd;stroke:#000000;stroke-width:1.64510369px;stroke-linecap:butt;stroke-linejoin:miter;stroke-opacity:1"
     d="m 97.727451,221.80795 7.608609,-2.46766 3.8043,6.78606 6.58041,-0.20564 7.19733,0.71973 2.05638,6.68323 6.58041,-0.71973 5.14095,4.3184 -0.20563,9.25371 6.27195,3.49584 2.87894,2.46766 -6.9917,13.77774 -12.13263,7.50579 -4.42122,-2.98175 -0.92537,-6.58042 -11.31009,2.77611 -4.11276,-8.73961 -7.094508,-1.33665 -5.243768,-3.49584 1.542284,-7.60861 -8.636794,-0.20563 -2.673294,-4.52404 z"
     id="path4523"
     inkscape:connector-curvature="0" />
  <path
     inkscape:connector-curvature="0"
     style="fill:#211c1c;fill-opacity:1;fill-rule:evenodd;stroke-width:1.64510369"
     id="path4"
     d="m 250.3141,216.10602 c -3.37739,0.0823 -33.17516,0.82255 -39.30975,2.31959 -4.3513,1.06932 -12.26754,-0.82255 -14.95399,-1.64016 -1.36873,-0.42773 -2.83287,0.33395 -3.25731,1.69116 -0.42772,1.35392 0.33889,2.79339 1.7142,3.21454 0.35699,0.10693 7.21049,2.1814 13.35166,2.1814 1.55298,0 3.05661,-0.13161 4.4023,-0.46392 4.71816,-1.15157 29.15782,-1.95438 38.17957,-2.16495 1.43617,-0.0362 2.57787,-1.21244 2.54168,-2.63217 -0.0329,-1.41972 -1.24205,-2.52688 -2.67,-2.50714" />
  <path
     inkscape:connector-curvature="0"
     style="fill:#211c1c;fill-opacity:1;fill-rule:evenodd;stroke-width:1.64510369"
     id="path6"
     d="m 245.68314,130.79095 -95.72858,4.21969 m 16.06608,-1.42631 13.31546,-28.18391 m 0,28.31223 22.34051,-27.67722 m 0,26.69345 15.46727,-22.08058 m 2.4693,21.29258 8.72398,-15.60381 m -8.72398,15.60381 10.67343,14.13637 m -28.61,-13.34837 14.01629,22.54451 m -36.3568,-21.56074 10.17662,17.92177 m -23.49208,-18.05009 6.52284,20.3993 M 58.116644,135.01228 h 84.054926 m -18.67686,0 L 113.32797,108.23 m -7.34539,26.78228 -5.84012,-27.13269 M 89.248586,135.01228 75.781768,117.81437 m 13.466818,17.19791 -13.466818,19.31847 m 30.200812,-19.31847 -14.855285,22.3981 m 32.367415,-22.3981 -11.44005,19.31847 m 58.13632,-46.77031 1.75039,0.40305" />
  <path
     style="fill:#211c1c;fill-opacity:1;fill-rule:evenodd;stroke-width:1.64510369"
     d="m 153.26255,20 c -14.49337,0 -22.39292,6.824045 -25.71439,10.686748 -2.02347,-1.546397 -4.38209,-2.614686 -7.01097,-3.058864 -6.99827,-1.197636 -14.43396,2.042832 -19.88582,8.652858 -8.199201,9.939717 -7.786691,21.131718 -7.248742,25.415568 -7.330582,4.622741 -14.14725,12.220327 -14.14725,24.519106 0,8.04459 2.547314,15.581734 7.579687,22.443454 -18.265587,7.45232 -30.217033,23.9792 -30.855333,24.87578 -0.08555,0.12174 -0.143124,0.25396 -0.205638,0.38556 -0.02139,0.0444 -0.04774,0.0809 -0.06748,0.12536 -0.115157,0.27967 -0.166849,0.57299 -0.17672,0.87076 0,0.0329 -0.01612,0.0571 -0.01612,0.09 0,0.0329 0.01612,0.0666 0.01612,0.0995 0.01645,0.29281 0.05514,0.58307 0.170295,0.86109 l 0.01283,0.0321 c 0,0.003 0.0064,0.01 0.0097,0.0132 0.381664,0.92784 6.412099,14.80531 23.327055,23.05716 -6.95865,1.98947 -14.666218,3.82529 -23.706201,4.79072 H 50.53036 v 0.42735 5.17308 46.62197 5.17308 0.27312 h 4.793934 c 7.983379,0.7732 18.053738,3.67361 25.136028,12.65637 1.148283,1.45592 2.462643,2.85334 3.910334,4.15132 0.501757,0.45076 1.129134,0.67474 1.757563,0.67474 0.707395,0 1.411294,-0.28578 1.927856,-0.84183 0.970612,-1.04628 0.890798,-2.67178 -0.170294,-3.62758 -1.230538,-1.10222 -2.343886,-2.28639 -3.306274,-3.5087 h -0.0033 C 76.293823,220.52908 64.753185,217.16084 55.713008,216.31381 v -47.29673 c 12.748566,-1.34058 22.82687,-4.37173 31.967063,-7.1395 8.824336,-2.67165 16.451709,-4.98029 24.374519,-4.98029 16.43458,0 24.67677,8.28356 24.80508,8.41187 l 5.47511,5.39157 c 0.50998,0.50175 1.17482,0.75508 1.84112,0.75508 0.66954,0 1.33753,-0.25333 1.84751,-0.75508 1.01997,-1.00352 1.01997,-2.63222 0,-3.6308 l -1.24347,-1.22096 v -39.3829 c 0,-0.69423 0.57778,-1.26596 1.28847,-1.26596 0.70739,0 1.28201,0.57008 1.28201,1.26596 v 37.47111 c 0,1.41972 1.16636,2.57047 2.60583,2.57047 1.43946,0 2.60902,-1.15239 2.60902,-2.57047 V 153.3918 c 1.76026,1.8491 4.05896,3.81062 7.03989,5.5972 1.23383,0.73208 2.83729,0.35299 3.58581,-0.86109 0.74688,-1.21409 0.35494,-2.7909 -0.87396,-3.5312 -6.4488,-3.86271 -9.10686,-8.69193 -9.75174,-10.04092 v -7.09773 l 11.80169,-0.52051 5.69361,17.81018 c 0.35205,1.09728 1.38142,1.79611 2.48693,1.79611 0.25828,0 0.52571,-0.0383 0.78399,-0.11894 1.37202,-0.42444 2.13397,-1.86553 1.70295,-3.22273 l -5.2759,-16.50247 8.09378,-0.35664 9.38866,16.53458 c 0.47708,0.84229 1.36505,1.31416 2.27809,1.31416 0.43101,0 0.86611,-0.10249 1.26916,-0.32453 1.25686,-0.69094 1.70652,-2.2603 1.0057,-3.49906 l -8.11306,-14.27899 16.58276,-0.73258 11.68603,18.79981 c -0.65804,0.29612 -1.31111,0.59437 -1.9889,0.87075 -1.33253,0.54617 -1.96331,2.04975 -1.41056,3.3609 0.41621,0.98706 1.38822,1.58084 2.40983,1.58084 0.33231,0 0.67033,-0.0596 0.99606,-0.19279 1.72078,-0.70739 3.36182,-1.47072 4.96744,-2.26201 0.0444,-0.0214 0.0938,-0.0332 0.13819,-0.0579 0.01,-0.007 0.0164,-0.0174 0.0257,-0.0257 19.27074,-9.5449 30.23006,-24.47417 30.72359,-25.15853 0.0921,-0.12503 0.13671,-0.26995 0.20243,-0.40486 0.0444,-0.0888 0.0989,-0.16155 0.13177,-0.26026 l -0.007,0.003 c 0.102,-0.29613 0.15283,-0.60168 0.14132,-0.90931 0,-0.01 0.008,-0.0164 0.007,-0.0257 0,-0.0494 -0.0321,-0.0888 -0.0354,-0.13819 -0.0263,-0.25335 -0.0828,-0.49883 -0.18636,-0.73902 -0.0428,-0.0987 -0.10315,-0.19211 -0.16073,-0.28917 -0.0559,-0.0987 -0.0915,-0.20513 -0.16385,-0.29561 -0.71233,-0.90481 -14.76138,-18.33921 -41.40713,-24.83078 4.91228,-4.3036 7.90742,-10.448749 7.90742,-16.833396 0,-9.827843 -6.33927,-16.372096 -9.43042,-18.986165 0.93442,-2.237341 1.46003,-4.608115 1.54228,-7.052739 0.23525,-7.004852 -3.17728,-14.015233 -9.36616,-19.236788 -4.46811,-3.767291 -10.00562,-5.591168 -15.28147,-6.397269 -0.028,-0.05758 -0.0234,-0.120701 -0.0546,-0.179933 -0.34054,-0.641591 -8.54773,-15.695961 -28.38768,-15.695961 z m 0.003,5.134523 -0.003,0.0033 c 11.927,0 18.81994,6.398091 21.86831,10.201571 -6.22836,-0.106932 -11.04348,0.860672 -11.45147,0.947862 -0.0658,0.01152 -0.11104,0.05424 -0.17349,0.07069 -0.0921,0.02632 -0.18428,0.03771 -0.27312,0.0739 -0.0543,0.01974 -0.0934,0.06686 -0.14773,0.09318 -0.023,0.0099 -0.0461,0.02861 -0.0675,0.04177 -0.15628,0.08225 -0.29895,0.162882 -0.43055,0.273112 -0.0526,0.04113 -0.11763,0.05996 -0.17029,0.106027 -1.43124,1.357211 -2.83048,2.515467 -4.21237,3.560108 -2.18305,-5.507807 -6.24225,-8.627156 -11.55429,-8.627156 -7.16113,0 -11.32973,3.577329 -13.50784,6.406908 -0.54289,-1.388468 -1.2056,-2.676712 -1.99854,-3.83322 2.30643,-2.878932 8.93171,-9.31797 22.12215,-9.31797 z m -35.55288,7.386901 c 0.65102,0.0036 1.29754,0.05789 1.93749,0.167082 2.4512,0.416211 4.54377,1.587164 6.16914,3.373747 0.0214,0.02961 0.0492,0.05078 0.0739,0.07711 0.62185,0.695879 1.18424,1.476711 1.65474,2.355196 -0.95416,0.565916 -2.05908,1.290714 -2.97211,2.085299 -1.53653,1.348985 -2.36161,3.197567 -2.77289,4.408363 -2.14192,1.237118 -7.22774,4.541075 -11.75671,10.18872 -2.02348,0.398115 -6.60216,1.481261 -11.637826,3.810728 -0.197378,-4.401566 0.432522,-12.3704 6.288026,-19.468133 l 0.003,-0.0033 c 3.71625,-4.500408 8.45711,-7.019796 13.01303,-6.994904 z m 28.9339,4.495117 c 4.04696,0 6.06177,3.13634 7.07844,6.342647 -3.54684,1.847451 -6.90833,2.604712 -10.05377,2.17205 -2.92829,-0.407986 -5.28345,-1.791107 -7.01739,-3.238798 1.1746,-1.865548 4.12299,-5.275899 9.99272,-5.275899 z m 29.96851,3.531189 c 5.65423,0.276378 12.20226,1.598835 16.97799,5.629339 4.97809,4.198305 7.73173,9.72552 7.55077,15.162587 -0.11845,3.548489 -1.47073,6.825228 -3.90713,9.677838 -2.92828,-17.615771 -15.04968,-24.999485 -17.60453,-26.369856 -0.50669,-1.161443 -1.20329,-2.234566 -2.09494,-3.200242 -0.29612,-0.317505 -0.603,-0.618353 -0.92216,-0.899666 z m -10.07626,1.069961 c 2.1337,0.361923 5.23941,1.224034 7.1395,3.286994 1.34899,1.467433 1.90709,3.355703 1.69652,5.770715 -0.50011,5.741412 -7.26244,18.808446 -18.94762,24.403444 -9.00529,4.310171 -18.79613,3.24075 -29.09777,-3.148833 -1.23383,-4.375975 -1.8218,-9.10416 -1.75435,-14.182592 l 0.003,0.0033 c 4.02557,3.314884 10.44481,7.554701 17.2029,7.798176 4.39242,0.141479 8.27191,-1.342455 11.57034,-4.453347 8.85066,-8.347256 11.4404,-15.605197 12.18726,-19.477771 z m -36.43969,1.365564 c 2.07612,2.572942 6.32819,6.706703 12.77206,7.624671 0.86862,0.125028 1.73853,0.186359 2.61866,0.186359 4.54542,0 9.27491,-1.690395 14.12797,-4.967442 -1.51679,3.135568 -4.17786,7.125586 -8.87134,11.557495 -2.27353,2.138635 -4.82954,3.125441 -7.76605,3.026735 -7.23023,-0.253346 -14.59939,-6.898614 -16.96834,-9.224791 0.15135,-1.316083 0.32875,-2.638386 0.55907,-3.990661 0.0905,-0.419502 0.57189,-1.989676 1.46518,-2.779326 l 0.003,0.0033 c 0.57249,-0.498466 1.33574,-1.001945 2.05958,-1.436252 z m 50.41986,8.482566 c 4.66387,3.750837 12.16156,12.154615 12.16156,27.462309 0,11.104453 -3.52103,19.147052 -10.19193,23.24994 -0.0165,0.01 -0.0206,0.0271 -0.0354,0.0354 -1.28976,0.16451 -2.58365,0.4263 -3.87176,0.74545 -0.0658,0.0214 -0.13194,0.0285 -0.19279,0.0513 -2.2538,0.56921 -4.48575,1.34241 -6.66716,2.26202 l -0.94144,-0.21528 c -0.0494,-0.0132 -0.0969,1.5e-4 -0.14132,-0.007 -0.0576,-0.01 -0.10315,-0.04 -0.15744,-0.0482 -0.23524,-0.023 -23.65114,-2.83698 -36.48789,-19.638424 -1.45591,-1.911611 -2.72346,-3.932785 -3.8043,-6.059899 5.51933,2.512068 10.56298,3.482992 15.02121,3.482992 v -0.0033 c 5.40417,0 9.95959,-1.393337 13.49821,-3.087788 12.99632,-6.223427 20.9254,-20.235032 21.81047,-28.230236 z m -59.84706,0.536587 c -0.77978,8.019881 -0.12026,15.339796 1.86037,21.967919 0.023,0.15793 0.0806,0.30334 0.1349,0.453045 1.58588,5.121208 3.95333,9.837282 7.19089,14.070134 10.23748,13.371404 25.92103,18.622494 34.30941,20.567004 -8.16629,4.73132 -14.41514,10.26175 -15.73451,11.46432 -0.73372,-0.28625 -1.52912,-0.45946 -2.36484,-0.45946 h -0.003 c -0.8061,0 -1.57538,0.16418 -2.28771,0.42733 -2.02841,-2.43969 -10.42037,-11.25069 -27.26952,-14.33361 -8.50518,-13.427336 -11.32182,-25.639683 -8.35405,-36.29831 2.43475,-8.740436 8.34459,-14.629033 12.51822,-17.858372 z m -14.76739,9.533248 c -1.09069,2.095862 -2.05272,4.376798 -2.75683,6.888871 -3.12569,11.125837 -0.82921,23.512082 6.78928,36.867033 -1.77178,-0.14148 -3.60655,-0.23135 -5.53296,-0.23135 -4.34307,0 -8.485774,0.66609 -12.392895,1.78969 -4.984375,-6.30074 -7.544054,-13.229856 -7.544054,-20.634484 v -0.0033 c 0,-9.1369 4.499127,-16.280277 13.376106,-21.23533 2.822993,-1.579299 5.668033,-2.684475 8.061643,-3.441223 z m 96.27063,11.596053 c 2.59104,2.396916 6.85032,7.404075 6.85032,14.417146 0,6.300747 -3.79793,12.332569 -9.69069,15.454975 -2.81807,-0.43924 -5.76005,-0.74666 -8.81995,-0.89966 4.00748,-4.507581 7.38371,-11.701373 7.38369,-23.179255 0,-0.460629 -0.0464,-0.877893 -0.0579,-1.327006 1.67307,-1.365436 3.13517,-2.855644 4.33446,-4.4662 z m -16.2229,33.978461 c 3.81993,0 7.45037,0.27808 10.91166,0.75187 l -18.83515,23.33347 -8.1741,0.35987 -0.003,0.007 -0.003,-0.007 h 0.007 l 11.29973,-23.92147 c 1.61549,-0.32573 3.22608,-0.52374 4.79715,-0.52374 z m 16.7595,1.76721 c 3.70971,0.79952 7.15702,1.84225 10.38471,3.02672 l -12.82988,18.31463 -15.32325,0.67476 z m -28.2945,0.84504 -10.43612,22.09965 -11.41934,0.50124 v -5.85104 -2.69901 c 2.72264,-2.38211 11.88449,-9.99731 21.85546,-14.05084 z m -70.01622,0.48196 c 2.50055,0 4.83216,0.14691 7.03989,0.38877 v 0.003 l 8.2962,21.84581 h -11.64425 l -4.77787,-22.20891 c 0.36192,-0.0115 0.7241,-0.0289 1.08603,-0.0289 z m -6.304094,0.543 4.665414,21.69481 H 90.533335 L 79.528491,118.38491 c 5.379489,-3.5123 11.66232,-6.4695 18.568465,-7.63753 z m 19.275354,0.80971 c 13.52604,2.94144 20.37828,9.8596 22.19283,11.9752 v 2.93998 h -0.003 v 5.96992 h -14.26 z m 100.65014,2.35199 c 2.42159,1.08247 4.69354,2.22618 6.78282,3.4123 l -6.76998,12.11336 -11.23298,0.49161 z m 11.2169,6.13378 c 4.68526,3.08292 8.27675,6.12974 10.68354,8.42795 l -15.78594,0.69724 z m -153.952142,1.34308 v 0.007 l 8.656074,11.04982 H 63.536927 c 2.591038,-2.96121 6.620848,-7.12447 11.750281,-11.05627 z m 164.648532,12.23225 c -2.16002,2.37553 -5.25099,5.49007 -9.19266,8.75889 l -6.10488,-8.08415 z m -21.58878,0.95107 8.30585,11.00163 c -2.98093,2.19128 -6.33355,4.3512 -10.012,6.31053 l -10.42649,-16.77556 z m -110.95773,3.00746 h 11.5607 l -8.42472,14.23401 c -4.74675,0.15299 -9.31325,0.98119 -14.015521,2.18168 z m -44.925477,0.003 h 21.832969 l -9.195873,13.18975 C 68.573078,146.20131 64.577711,140.9607 62.463753,137.58001 Z m 62.526797,0 h 14.57459 v 6.9949 c -0.64653,1.38189 -3.33906,6.33044 -10.16624,10.2787 -0.007,0.005 -0.0115,0.0115 -0.0192,0.0132 v -0.003 c -3.47121,-1.35228 -7.78254,-2.46884 -12.90703,-2.89821 z m -34.37046,0.003 h 10.54537 l -12.222606,18.42387 c -0.02797,0.0411 -0.0283,0.0921 -0.05462,0.13819 -0.720555,0.21386 -1.447897,0.43172 -2.184903,0.65547 l -0.703665,-0.31489 c -2.357433,-0.87519 -4.498459,-1.88948 -6.480809,-2.97854 z m 48.94505,15.80842 v 7.38689 c -0.93442,-0.8061 -2.49735,-2.0165 -4.72647,-3.30626 1.89092,-1.34851 3.45363,-2.74203 4.72647,-4.08063 z m 18.75803,26.86788 c -0.66668,0 -1.33277,0.2501 -1.8411,0.75186 -1.01997,1.00351 -1.01997,2.62893 0,3.63079 14.01628,13.81228 32.48979,32.01489 34.17766,33.67645 l 0.74866,0.72294 c 2.68151,2.58279 9.80731,9.4508 9.83528,14.61314 0.007,1.2766 -0.44322,2.31356 -1.41054,3.26772 -1.40328,1.38189 -2.9551,2.00122 -4.57224,2.02425 -3.60278,-0.0378 -6.97473,-3.07151 -7.69858,-3.76574 -1.50362,-1.5464 -3.02812,-2.88066 -4.20273,-3.90391 -0.51985,-0.45242 -0.94169,-0.81655 -1.2049,-1.07319 l -11.26832,-11.10445 -3.68862,3.6308 11.27153,11.10445 c 0.31586,0.31257 0.81603,0.75207 1.43624,1.29165 2.42653,2.1156 8.11515,7.06954 8.23195,10.80886 0.028,0.92619 -0.3271,1.71859 -1.10852,2.49014 -1.20422,1.18448 -2.43359,1.74648 -3.74967,1.6708 -2.68645,-0.12174 -5.39972,-2.67467 -6.21734,-3.64364 l -0.0164,-0.0132 c -0.72385,-0.941 -1.53512,-1.8921 -2.52548,-2.86929 l -13.56246,-13.36969 -3.68543,3.63722 13.55926,13.36647 c 2.20937,2.17154 3.54844,4.15402 3.97781,5.8896 0.43266,1.73725 -0.0633,3.19032 -1.60977,4.71039 -2.56636,2.53346 -6.40065,0.70496 -7.69535,-0.0354 -0.63007,-1.05285 -1.3779,-2.05462 -2.29094,-2.95283 -3.15037,-3.10597 -11.23104,-12.07106 -11.31329,-12.16156 -0.95416,-1.06436 -2.60154,-1.158 -3.67579,-0.21205 -1.07754,0.93769 -1.17429,2.56162 -0.21849,3.62436 0.3356,0.37344 8.25992,9.16881 11.52216,12.38005 1.34405,1.32431 2.25937,2.98667 2.50943,4.55939 0.26979,1.67471 -0.21318,3.0924 -1.46839,4.33445 -0.52314,0.50998 -1.11931,0.69316 -1.89251,0.72937 -1.7471,-0.0132 -5.86652,-1.23164 -13.77454,-9.27619 -0.99857,-1.01997 -2.64899,-1.04004 -3.68541,-0.0546 -1.03641,0.98706 -1.05814,2.61404 -0.0546,3.634 7.13481,7.25491 12.85163,10.80001 17.47601,10.83455 h 0.0707 c 2.13864,0 4.05212,-0.77216 5.54259,-2.2363 1.99057,-1.96261 3.03278,-4.42364 3.04923,-7.06238 0.87191,0.18754 1.77773,0.30523 2.69899,0.30523 2.3525,0 4.79967,-0.72294 6.88566,-2.77932 2.05638,-2.02348 3.15106,-4.33477 3.26129,-6.78926 0.90151,0.29612 1.83991,0.529 2.85001,0.57835 0.15628,0.008 0.31448,0.0132 0.46911,0.0132 2.63217,0 5.12827,-1.09332 7.24552,-3.18095 1.79316,-1.76684 2.70226,-3.94218 2.63152,-6.28481 -0.023,-0.64159 -0.12651,-1.27843 -0.27953,-1.91179 0.67942,0.13161 1.38246,0.21505 2.10137,0.22492 h 0.16056 c 3.05496,0 5.81128,-1.18849 8.19339,-3.53441 1.95768,-1.92971 2.94836,-4.25916 2.93355,-6.92422 -0.0411,-7.30755 -8.00126,-14.98453 -11.40004,-18.26322 l 0.003,0.01 -0.70689,-0.6876 c -1.69445,-1.66485 -20.16617,-19.86422 -34.18409,-33.67322 -0.50999,-0.50176 -1.17443,-0.75186 -1.84111,-0.75186 z"
     id="path8"
     inkscape:connector-curvature="0" />
  <path
     style="fill:#211c1c;fill-opacity:1;fill-rule:evenodd;stroke-width:1.64510369"
     d="m 190.01069,149.94713 c -16.27665,0 -29.56904,3.22574 -36.46861,8.85529 -0.85545,0.69588 -2.33578,1.75779 -4.05491,2.98175 -9.96604,7.12659 -28.50096,20.37094 -28.60296,34.15197 -0.12009,1.45427 -0.97043,14.01286 4.79072,20.22642 2.1847,2.35742 4.98557,3.55367 8.32513,3.55367 2.93651,0 5.31206,-0.91836 7.05916,-2.7247 3.75083,-3.88245 3.41229,-10.77076 3.1392,-16.30323 -0.10693,-2.15179 -0.24918,-5.09699 0.0321,-5.73858 3.03851,-3.84954 9.61473,-9.55252 14.08941,-9.55252 1.43947,0 2.60904,-1.14919 2.60904,-2.56727 0,-1.41972 -1.16793,-2.56727 -2.60904,-2.56727 -7.47206,0 -15.67843,8.32383 -18.2086,11.5318 -1.48059,1.87213 -1.33194,4.92306 -1.12137,9.14768 0.21386,4.31018 0.5033,10.21537 -1.70936,12.50536 -0.46721,0.48201 -1.31789,1.1278 -3.28378,1.1278 -1.86391,0 -3.28165,-0.595 -4.46941,-1.87325 -3.68503,-3.9647 -3.73406,-13.19449 -3.44123,-16.41889 0.008,-0.0757 0.0132,-0.15398 0.0132,-0.23135 l 0.003,0.003 c 0,-11.20316 17.86602,-23.9753 26.45017,-30.10989 1.85897,-1.33253 3.32986,-2.38137 4.31199,-3.18418 5.8944,-4.80699 18.28603,-7.67607 33.14625,-7.67607 11.46966,0 20.9438,5.21203 26.87111,9.58143 6.69519,4.94656 25.66888,5.47719 31.40476,5.5426 v 51.08817 h 5.18272 v -56.20031 h -4.18699 c -9.46314,-0.0668 -24.89229,-1.30302 -29.27771,-4.54331 -6.56396,-4.8399 -17.09003,-10.60642 -29.99422,-10.60642 z m -85.73174,67.21468 c -4.399009,0 -8.508042,4.0746 -11.808119,7.34835 l -0.655471,0.64906 c -1.798099,1.77012 -5.152465,5.2976 -7.402967,9.03198 -3.948249,6.53929 -2.382959,10.26458 -0.375933,12.23869 1.42466,1.40656 3.186232,2.15278 5.086327,2.15278 0.878485,0 1.73759,-0.19916 2.589754,-0.47555 -0.93771,3.31325 -0.640948,6.46577 1.892512,8.95811 1.90832,1.88365 4.218327,2.81961 6.705727,2.81466 0.95416,0 1.93826,-0.15102 2.93355,-0.42735 -0.37837,2.74733 0.20677,5.32122 2.35198,7.43191 1.72736,1.70597 3.76663,2.56881 6.0599,2.57047 2.63217,0 5.2261,-1.19197 7.62467,-2.84038 -0.55934,2.60255 -0.2188,5.10431 1.6451,7.2166 1.25028,1.41808 2.9641,2.16886 4.95138,2.16886 h 0.003 c 7.64644,0 18.09558,-11.5142 21.13574,-18.98298 2.13863,-5.25445 0.77157,-8.07779 -0.75509,-9.51395 -1.45592,-1.37368 -3.28822,-2.09494 -5.29195,-2.09494 v 0.007 c -0.79952,0 -1.59299,0.14148 -2.3777,0.34058 0.96238,-1.97905 1.5839,-4.02347 1.59048,-6.05024 0.01,-2.63877 -0.97446,-4.9544 -2.92391,-6.88247 -1.56778,-1.55297 -3.53531,-2.37448 -5.69039,-2.37448 -1.38189,0 -2.76936,0.33376 -4.15453,0.89967 -0.079,-2.92828 -1.70552,-5.03406 -3.10385,-6.30408 -4.15225,-3.78703 -8.95577,-2.55268 -13.09978,-0.0225 0.0164,-0.22372 0.0387,-0.44622 0.0354,-0.66831 -0.023,-2.07943 -0.82007,-3.91651 -2.29737,-5.2984 -1.31609,-1.23876 -2.93304,-1.89251 -4.66862,-1.89251 z m -0.003,5.14095 c 0.27967,0 0.62892,0.0592 1.07639,0.47876 0.46063,0.43102 0.66816,0.93629 0.67474,1.63546 0.0411,3.16354 -3.85162,8.42994 -7.727486,12.25152 l -0.931797,0.93501 c -2.020187,2.04322 -5.783645,5.84627 -8.24801,5.84463 -0.345472,0 -0.825046,-0.0701 -1.404123,-0.64261 l 0.0033,-0.003 c -1.327599,-1.30784 0.164329,-4.30814 1.172778,-5.97957 1.962608,-3.25072 4.984047,-6.42561 6.606119,-8.02628 l 0.668324,-0.65868 c 2.199503,-2.1847 5.880735,-5.83499 8.109845,-5.83499 z m 14.20508,5.55544 c 0.87828,0.0414 1.63618,0.36396 2.29093,0.96072 0.98707,0.90481 3.01094,2.76509 -0.8386,7.55399 -1.43124,1.25357 -2.8464,2.59951 -4.23486,3.96494 -3.14544,3.10431 -7.02029,7.3908 -9.63929,11.81777 -2.18469,1.8129 -5.93895,4.07046 -8.768527,1.28201 h -0.0033 c -3.035217,-2.98915 2.644915,-11.26929 9.613567,-18.15074 5.23143,-5.14506 8.94516,-7.5529 11.57999,-7.42868 z m 13.08372,7.7307 c 0.77978,0 1.39478,0.26073 1.99854,0.8579 0.96074,0.95416 1.40741,1.98351 1.40412,3.24201 -0.0164,5.03402 -7.08962,11.93659 -10.10838,14.88626 l -0.72938,0.7101 c -0.37014,0.36685 -0.77076,0.77224 -1.19849,1.2049 -2.89867,2.92829 -7.74427,7.83032 -11.27796,7.83032 -0.88204,-0.003 -1.64018,-0.34353 -2.37447,-1.06996 -3.2582,-3.2172 2.73093,-11.99822 10.1084,-19.27535 1.11045,-1.094 2.57013,-2.53488 4.16095,-3.91676 0.0658,-0.0609 0.15283,-0.0979 0.21528,-0.1703 0.008,-0.01 0.0176,-0.0174 0.0225,-0.029 2.62065,-2.24721 5.54649,-4.27021 7.7789,-4.27021 z m 9.4015,14.96339 c 0.6712,0 1.19334,0.20596 1.68688,0.67153 0.38166,0.36192 0.39316,1.73283 -0.47875,3.88463 h 0.003 c -2.82299,6.92589 -11.96344,15.76022 -16.30322,15.76022 -0.54782,0 -0.80148,-0.16154 -1.01534,-0.40163 -1.99551,-2.25871 1.34031,-8.49045 8.10662,-15.14654 3.03358,-2.9875 6.02484,-4.7682 8.0006,-4.7682 z"
     id="path10"
     inkscape:connector-curvature="0" />
</svg>
